<?xml version="1.0" encoding="UTF-8"?>
<svg id="Livello_1" xmlns="http://www.w3.org/2000/svg" version="1.1" viewBox="0 0 60 60">
  <!-- Generator: Adobe Illustrator 29.8.1, SVG Export Plug-In . SVG Version: 2.1.1 Build 2)  -->
  <defs>
    <style>
      .st0 {
        fill: #0091da;
      }

      .st1 {
        fill: #004b87;
      }
    </style>
  </defs>
  <path class="st0" d="M11,43.4h32.2c.5,0,1-.4,1-1v-11.5c-1.2-.8-2.7-.8-3.8,0l-1.2.8c-1.2.8-2.7.8-3.8,0l-1.2-.8c-1.2-.8-2.7-.8-3.8,0l-1.2.8c-1.2.8-2.7.8-3.8,0l-1.2-.8c-1.2-.8-2.7-.8-3.8,0l-1.2.8c-1.2.8-2.7.8-3.8,0l-1.2-.8c-1.2-.8-2.7-.8-3.8,0l-.2.2v11.3c0,.5.4,1,1,1h-.2Z"/>
  <path class="st1" d="M55.7,26.6v-3.6h-5.9v-.2c0-3.2-2.6-5.8-5.8-5.8h0v-3.3h1.7v-2.4h-11.5v2.4h1.8v3.3H10.1c-3.2,0-5.8,2.6-5.8,5.8v20.3c0,3.2,2.6,5.8,5.8,5.8h33.9c3.2,0,5.8-2.6,5.8-5.8v-2.2h5.9v-3.6h-5.9v-10.6h5.9ZM38.2,13.6h3.5v3.3h-3.5s0-3.3,0-3.3ZM46.1,43c0,1.1-.9,2.1-2.1,2.1H10.1c-1.1,0-2.1-.9-2.1-2.1v-20.3c0-1.1.9-2.1,2.1-2.1h33.9c1.1,0,2.1.9,2.1,2.1v20.3Z"/>
</svg>