<?xml version="1.0" encoding="UTF-8"?>
<svg id="Livello_1" xmlns="http://www.w3.org/2000/svg" version="1.1" viewBox="0 0 60 60">
  <!-- Generator: Adobe Illustrator 29.8.1, SVG Export Plug-In . SVG Version: 2.1.1 Build 2)  -->
  <defs>
    <style>
      .st0 {
        fill: #0091da;
      }

      .st1 {
        fill: #004b87;
      }
    </style>
  </defs>
  <path class="st1" d="M51.3,26.6h6c1.2,0,1.3,1.6.7,2.4q-.7,1-1.9,1h-4c-.5,0-1,0-1.5.4-.5.3-.7.6-1.2,1.1-.5.6-1.1,1.2-1.6,1.8-.5.5-.8,1-1.3,1.4-.3.2-.7.3-1,.4h-3.9c-6.8,0-18.9.2-20.7,0-.6-.2-1.2-.5-1.4-1.2-.4-.9-1.1-2.5-1.5-3.3-.1-.3-.4-.4-.7-.4h-3c-.5.2-1.2.6-1.5,1.1-.7,1.1-3.3,4.9-4,6-.2.4-.4.6-.9.8-.5.3-1.1.3-1.7.3h-2.4c-.8,0-1.5-.5-1.9-1.2-.3-.7-.3-1.5-.2-2.2,0-.3.2-.6.3-.8.9-1.5,4.1-7.5,4.9-9,.2-.3.2-.4.5-.7.5-.6,1.2-1.2,2-1.2s1.3.3,2,.9c.4.3.8.8,1.1,1.1.4.4,1,.8,1.5,1.1.3.2.7.2,1,.2h2.4c.5,0,.6-.1.8-.6.3-.6.8-1.8,1.1-2.5.2-.4.3-.7.6-1.1.2-.2.4-.4.7-.6.3-.2.8-.3,1.1-.3h22.9c3.2,0,.9,0,1.3.3s.9.7,1.2,1c.7.7,2.1,2.2,2.6,2.8.4.5,1,.7,1.6.8h0v.3Z"/>
  <path class="st0" d="M43.1,32.6h-19.9c-1.2,0-2.3-.8-2.6-2h0c-.4-1.5-.4-3.1,0-4.5h0c.3-1.2,1.4-2,2.6-2h19.9c1.2,0,2.2.5,3,1.4h0l1.4,1.8c.5.6.5,1.4,0,2l-1.4,1.8h0c-.7.9-1.8,1.4-3,1.4h0Z"/>
</svg>