<?xml version="1.0" encoding="UTF-8"?>
<svg id="Livello_1" xmlns="http://www.w3.org/2000/svg" version="1.1" viewBox="0 0 60 60">
  <!-- Generator: Adobe Illustrator 29.8.1, SVG Export Plug-In . SVG Version: 2.1.1 Build 2)  -->
  <defs>
    <style>
      .st0 {
        fill: #0091da;
      }

      .st1 {
        fill: #004b87;
      }
    </style>
  </defs>
  <rect class="st0" x="45.9" y="19.9" width="11.5" height="7.2"/>
  <g>
    <path class="st1" d="M54.7,21.7h-.5v1.6h.4c.6,0,1-.3,1-.9s-.3-.8-1-.8h0Z"/>
    <path class="st1" d="M57.3,18.2h-21.2v10.6h21.2c1.1,0,2-.9,2-2v-6.6c0-1.1-.9-2-2-2ZM52,26.2h-1.2v-2.3h-2v2.3h-1.2v-5.4h1.2v2.1h2v-2.1h1.2v5.4ZM56.4,23.7c-.4.4-1,.6-1.8.6s-.3,0-.4,0v1.9h-1.2v-5.3c.4,0,.9-.1,1.6-.1s1.3.1,1.6.4c.4.3.6.7.6,1.2s-.2,1-.5,1.3h.1Z"/>
  </g>
  <g>
    <g>
      <path class="st0" d="M45.8,27.3l-1-.5.3-3.2-1.9-.2-.3-2.7-2.5.2-.6-2.2-3,.8-.8-1.9h-.4l-2.7,1.6-1.1-1.6-3.3,2.1-1.2-1.4-1.6,1.6s0,.8-.2,1.7l-.6.4c-.4-.6-2.1-2.1-2.1-2.1l-.4,1.5.6,1.7-.9.6-1.1.6s-1.1-1.7-2.4-2.1-.9.5-.9.5l-.3,3.1h-1l-.7.5-.3,1.9-1.5-.3-.8,2.5-2.1.6-1.2.5-1.3,1.1,1.1,1.5-1.8,1.4-.6.8,1.3,1.5-1.6,2.2,1.9,1.4-1,2,2.3,1.3v1.5l2.9,1.2v.2l.7.6,3.6.7h1.1l2.2.4h.9l1.2-.5,1.3-.2h1.4c.5.2,1.1,0,1.6,0l1.2-.5.3-.8,1.3-.4h1.3c.3,0,.6,0,.8-.2l1.2-.7c.3-.2.6-.4.7-.8l.3-.7,1.2-.8h.7c.4,0,.7,0,1-.2l1.1-1s.2-.2.3-.4l.7-1.4.9-.9,1-.3.7-.7c.2-.2.3-.4.4-.6l.8-1.9v-.5l.6-.4,1.6-3.6v-.8l.7-3.6h0ZM27.3,35c-2.7,1.6-5.8,1.4-6.8-.3-1-1.8.4-4.5,3.1-6,2.7-1.6,5.8-1.4,6.8.3,1,1.8-.4,4.5-3.1,6Z"/>
      <path class="st1" d="M36.8,28.3l1.5-1.5,7.6.4v-.8l-7.6-.3-1.1.4-1.1.7-.2-.7.5-.5,1.4-1.9,7.2-.6-.3-.6-7.1.8-1.5.9-.9.7-.3-.5.5-.8,1-1.9,6.4-1.5-.6-.5-6.1,1.7-1.2,1-.8,1.1-.6-.4.4-.8.5-1.9,5.4-2.1-.8-.4-5.1,2.2-1.2,1.4-.5,1-.8-.3.3-.9.2-1.8,4-2.3h-.9c0-.1-3.7,2.1-3.7,2.1l-.9,1.4-.5,1.3h-.7v-.8s-.3-1.5-.4-1.8l2.8-2.3h-.9l-2.5,2.2-.8,1.6v1h-1.1v-.6l-.6-1.5,1.5-2.1-.9.2-1.2,1.9-.4,2.1v.7c.1,0-.9.4-.9.4,0,0-.2-.6-.2-.8s-1.1-1.4-1.1-1.4l.3-1.6-.9.4v3.1l.3.9-1,.5-.4-.6-1.3-1-.9-1.1-.9.6,1.1.9.5,1.6.3.6-.8.6-1.2-.8-1.5-.6-.3.2.2,1.1,1.6,1.2-.7.9-1.1-.5-1.6-.3-.4.4,1.3,1.4.8.4-.5.8-.7-.3h-2.1c0-.1-3.7,1.6-3.7,1.6l-.4.8,3.9-1.9,1.5,1,.8.2-.2.8-.5-.2-2.5.2-4.2,2.7v.9l4.2-3,2,.6h.7v.9h-1.3l-1.5.6-4.5,3.9v.8l4.5-4.3,1.8.2h1.1l.3.8-1,.3-1.8.6-4.4,5.1.4.8,4.3-5.4,2.4-.2.7-.2.5.6-1.3.4-.9.8-3.9,6.1.7.6,3.7-6.5,1.9-.3,1-.4.5.3-.7.4-1,1-2.8,7.2.9.3,2.5-7.3,1.5-.4,1.1-.8.6.4-.4.6-.2.7-1.6,7.5h1.1l1.1-7.5,1.3-.8.7-.8h1l-.2.6v.8c.1,0,.3,7.5.3,7.5l1.3-.2-.6-7.5,1.3-1.5,1.2-.4v.3l.5.5,2.2,7.2,1.3-.4-2.6-7,.5-.9v-.5l1.3-.5.2.3h.9l4.2,6.4,1.2-.8-4.5-6v-.9c.1,0-.2-.3-.2-.3l1-.8.4.3,1.4-.4,5.7,4.9.8-.8-6-4.7-.4-.5h-.6l.8-1h.6l1.6-.9,6.9,3.5.6-.9-7.2-3.1-.6-.2h-.9c0,.1.3-.8.3-.8h.7c0-.1,1.6-1.4,1.6-1.4l7.7,1.9.3-1-7.7-1.6h-.6l-1.3.6v-1l.9-.4v.2h0ZM27.3,35c-2.7,1.6-5.8,1.4-6.8-.3-1-1.8.4-4.5,3.1-6,2.7-1.6,5.8-1.4,6.8.3,1,1.8-.4,4.5-3.1,6Z"/>
    </g>
    <g>
      <path class="st1" d="M19.3,21c-.2-.7-1-2-1-2v-1.1l-1.6-3.7c-.3-.2-1.3.2-1.3.2l-2.1-3.2c-1,.3-1.9,1.5-1.9,1.5v.3h-.2l-1.1-1.3-1.3-.9c-.4.2-1.2,2-1.2,2v1l-1,.4h-.2c0-.1-2.1-.8-2.1-.8-.2.2-.2,1.9-.2,1.9l.5.8-1,1.3-.7-.3c-.6-.1-1.3.4-1.3.4l-.4.9c0,.6.7,1.3.7,1.3l.7.2v1.7c-1.3,0-2.1,1.7-2.1,1.7v.9c.1,0,.7.3.7.3h1.7c0,.1.3.9.3.9-.9.7-1.1,3-1.1,3h3.3c0,1.4.4,2.9.4,2.9l3.5-1,.6.8,2.5-1.2.3-.2h.5l.8-.2h.6c0-.1.3-1.8.3-1.8l.9-.4,1.1.5.3-.4-.2-1.5.6-.7v-.2h1.2l.2-.8-.7-.8-.5-.2v-1l.5-.3,1-1.3v.4ZM15.6,23.6c-.5,1.4-1.8,2.2-2.9,1.8s-1.5-1.9-1-3.3,1.8-2.2,2.9-1.8,1.5,1.9,1,3.3Z"/>
      <path class="st0" d="M17.5,22.5h1l.8-.8h0v-.5h-1.4c0-.1-.4.2-.4.2h-.1l-.2-1h0l.7-.3h0l.6-1.3h0l-1.6-3.7-.3-.3,1.5,3.6-1.1.6h0l-.6.7h-.1l-.5-.5h0l.4-1h0v-1.3c.1,0-2.4-4.5-2.4-4.5l-.8-.4,2.7,4.7h0l-.8,1.2h0l-.2.9h-.7v-1.2h0l-.5-1.1h0c0-.1-4-5-4-5h-.8c0,.1,4.4,5,4.4,5l-.4,1.6h0l.2.8h0l-.8.4h-.1l-.3-.7h0l-1-.7-5.7-4.3-.7.7,5.9,4.1.2,1.4h0l.6.7h0l-.5.8h0l-.8-.5h0l-1.2.2-6.8-2.7-.4.9,7,2.3h0l.8.9h0l.8.2h0v1h-1c0,.1-1.2,1-1.2,1l-7.1-.7v.9c.1,0,7.2.4,7.2.4l1.3.2h0l.8-.4h.1l.3.8h0l-.7.5h0l-.8,1.4-6.6,1.1.6.8,6.3-1.3,1-.6h0l.7-.9h.1l.6.5h0l-.3.7h0l-.2,1.6h0l-5.2,2,.8.3,4.9-2h0l.8-1h0l.2-1.2h.8v.9h0l.5,1.2h.4v-.2l.2-1.5h0l-.2-.7h0l.7-.5h.1l.2.7h0l1,.5h0l.2-.3h0l-.2-1.3h0l-.5-.6h0l.4-.9h0l.7.4h1c0-.1.2-.7.2-.7h0l-.7-.7h0l-.7-.2h0l.2-1h0s.7-.3.7-.3ZM15.6,23.6c-.5,1.4-1.8,2.2-2.9,1.8s-1.5-1.9-1-3.3,1.8-2.2,2.9-1.8c1.1.4,1.5,1.9,1,3.3Z"/>
    </g>
  </g>
</svg>