<?xml version="1.0" encoding="UTF-8"?>
<svg id="Livello_1" xmlns="http://www.w3.org/2000/svg" version="1.1" viewBox="0 0 60 60">
  <!-- Generator: Adobe Illustrator 29.8.1, SVG Export Plug-In . SVG Version: 2.1.1 Build 2)  -->
  <defs>
    <style>
      .st0 {
        fill: #0091da;
      }

      .st1 {
        fill: #004b87;
      }
    </style>
  </defs>
  <g>
    <path class="st0" d="M56,26.7l-1.1-.5.3-3.5-2.1-.2-.3-3-2.7.2-.7-2.4-3.3.9-.9-2.1h-.5c0,0-3,1.7-3,1.7l-1.2-1.7-3.6,2.3-1.3-1.6s-1.7,1.7-1.7,1.7c0,0-.1.9-.2,1.8l-.7.4c-.4-.6-2.3-2.3-2.3-2.3l-.4,1.6.6,1.9-.9.6-1.2.7s-1.2-1.8-2.6-2.3-1,.5-1,.5l-.3,3.4h-1.1c0,.1-.8.6-.8.6l-.3,2.1-1.7-.3-.9,2.7-2.3.6-1.3.6-1.4,1.2,1.2,1.7-2,1.5-.7.9,1.5,1.7-1.8,2.4,2.1,1.5-1,2.2,2.5,1.4v1.7c0,0,3.2,1.3,3.2,1.3v.3c0,0,.8.7.8.7l4,.7h1.2c0,0,2.4.5,2.4.5.3,0,.7,0,1-.1l1.3-.5,1.4-.3,1.5.2c.6,0,1.2,0,1.7-.2l1.4-.5.4-.8,1.4-.5h1.4c.3,0,.6,0,.9-.2l1.3-.7c.4-.2.6-.5.8-.9l.4-.8,1.3-.8h.7c.4.1.8,0,1.1-.3l1.2-1.1c.1-.1.2-.3.3-.4l.7-1.5,1-.9,1.1-.4.8-.8c.2-.2.3-.4.4-.7l.8-2.1v-.5s.7-.5.7-.5l1.8-3.9v-.9c0,0,.8-3.9.8-3.9ZM35.7,35.2c-3,1.7-6.3,1.6-7.4-.4-1.1-1.9.4-4.9,3.4-6.6,3-1.7,6.3-1.6,7.4.4,1.1,1.9-.4,4.9-3.4,6.6Z"/>
    <path class="st1" d="M46.1,27.8l1.6-1.6,8.3.5v-.9l-8.3-.3-1.2.4-1.2.8-.2-.8.6-.5,1.5-2,7.9-.7-.4-.7-7.8.9-1.6,1-1,.8-.3-.5.6-.9,1.1-2.1,7-1.6-.6-.6-6.7,1.8-1.3,1.1-.9,1.2-.7-.5.5-.9.5-2.1,5.9-2.3-.8-.4-5.6,2.5-1.3,1.5-.6,1.1-.8-.3.3-1,.2-2,4.4-2.5h-1c0-.1-4.1,2.3-4.1,2.3l-1,1.6-.5,1.5h-.8v-.8s-.3-1.7-.4-2l3.1-2.5h-1l-2.8,2.5-.9,1.8v1.1h-1.2c0,0,0-.6,0-.6l-.7-1.7,1.6-2.4-1,.2-1.3,2.1-.4,2.3v.7c.1,0-1,.4-1,.4,0,0-.3-.7-.3-.8s-1.2-1.5-1.2-1.5l.3-1.8-1,.4v3.4l.4,1-1.1.5-.4-.7-1.5-1.1-1-1.2-1,.7,1.2,1,.6,1.8.4.6-.9.7-1.3-.9-1.7-.7-.3.3.2,1.2,1.8,1.3-.8,1-1.2-.6-1.7-.4-.5.4,1.4,1.5.8.4-.5.9-.8-.3h-2.3c0-.1-4.1,1.7-4.1,1.7l-.5.9,4.2-2.1,1.7,1.1.9.2-.3.9-.5-.2-2.7.3-4.6,3v1c-.1,0,4.6-3.3,4.6-3.3l2.2.7h.8v.9h-1.5c0,.1-1.6.7-1.6.7l-4.9,4.3v.9l4.9-4.7,2,.2h1.2l.4.8-1.1.3-2,.6-4.8,5.6.4.9,4.7-5.9,2.6-.2.8-.2.5.7-1.4.4-1,.9-4.3,6.7.7.6,4-7.1,2.1-.3,1.1-.4.6.3-.8.4-1.1,1.1-3.1,7.9,1,.3,2.8-8,1.6-.4,1.3-.9.7.4-.4.7-.2.8-1.7,8.2h1.2c0,0,1.2-8.2,1.2-8.2l1.5-.9.8-.8h1.1c0,0-.2.6-.2.6v.8c.1,0,.3,8.3.3,8.3l1.4-.3-.7-8.3,1.4-1.6,1.3-.4v.4l.6.6,2.4,7.9,1.4-.5-2.9-7.7.6-1v-.6c0,0,1.4-.6,1.4-.6l.2.3h1c0,.1,4.6,7,4.6,7l1.3-.8-5-6.5v-1c.1,0-.3-.3-.3-.3l1.1-.8.4.3,1.5-.4,6.3,5.4.9-.8-6.5-5.1-.4-.6h-.6c0-.1.8-1.1.8-1.1h.6c0,0,1.7-1,1.7-1l7.6,3.8.7-1-7.9-3.4-.6-.2h-1c0,.1.3-.9.3-.9l.8-.2,1.8-1.4,8.4,2.1.3-1-8.4-1.8h-.7s-1.4.7-1.4.7v-1.1c.1,0,1-.4,1-.4ZM35.7,35.2c-3,1.7-6.3,1.6-7.4-.4-1.1-1.9.4-4.9,3.4-6.6,3-1.7,6.3-1.6,7.4.4,1.1,1.9-.4,4.9-3.4,6.6Z"/>
  </g>
  <g>
    <path class="st1" d="M26.9,19.9c-.2-.8-1.1-2.2-1.1-2.2v-1.2c0,0-1.7-4-1.7-4-.4-.2-1.4.2-1.4.2l-2.3-3.5c-1.1.4-2.1,1.7-2.1,1.7v.3h-.3c0,0-1.3-1.4-1.3-1.4l-1.4-1c-.4.3-1.3,2.2-1.3,2.2v1.1c0,0-1.1.5-1.1.5h-.3c0-.1-2.3-.8-2.3-.8-.2.2-.2,2.1-.2,2.1l.5.9-1,1.5-.7-.3c-.7-.2-1.5.4-1.5.4l-.4,1c0,.6.8,1.5.8,1.5l.8.2-.2,1.8c-1.3,0-2.1,1.9-2.1,1.9v1c.1,0,.7.3.7.3h1.9c0,.1.3,1,.3,1-1,.7-1.2,3.3-1.2,3.3h3.6c-.1,1.6.4,3.2.4,3.2l3.8-1.1.7.8,2.7-1.3.4-.2h.5s.9-.2.9-.2l.6-.2.3-1.8.9-.5,1.2.6.4-.4-.3-1.7.7-.8v-.2c.1,0,1.3,0,1.3,0l.3-.8-.8-.8-.5-.2v-.9c0,0,.1-.2.1-.2l.6-.4,1.1-1.4ZM23,22.7c-.6,1.5-2,2.4-3.2,2s-1.7-2-1.1-3.6c.6-1.5,2-2.4,3.2-2s1.7,2,1.1,3.6Z"/>
    <path class="st0" d="M25,21.5h1.1s0,0,0,0l.9-.9s0,0,0,0v-.6c-.1,0-.1,0-.2,0l-1.3-.2s0,0,0,0l-.5.3s-.1,0-.1,0l-.2-1.1s0,0,0,0l.7-.4s0,0,0,0l.7-1.4s0,0,0,0l-1.8-4.1-.3-.4,1.7,4-1.2.6s0,0,0,0l-.6.7s0,0-.1,0l-.5-.6s0,0,0,0l.5-1.1s0,0,0,0v-1.5c.1,0-2.6-5-2.6-5l-.9-.4,3,5.2s0,0,0,0l-.9,1.3s0,0,0,0l-.2.9s0,0,0,0h-.8c0,0,0,0,0-.1v-1.2s0,0,0,0l-.5-1.2s0,0,0,0v-.2l-4.4-5.3h-.9c0,.1,4.8,5.5,4.8,5.5l-.4,1.8s0,0,0,0l.2.9s0,0,0,0l-.9.4s0,0-.1,0l-.3-.8s0,0,0,0l-1.1-.7-6.2-4.8-.8.8,6.5,4.5.3,1.6s0,0,0,0l.7.7s0,0,0,0l-.6.9s0,0-.1,0l-.8-.5s0,0,0,0l-1.3.2-7.5-3-.4,1,7.6,2.5s0,0,0,0l.9,1s0,0,0,0l.9.2s0,0,0,0v1.1c-.2,0-.2,0-.2,0h-.9c0,.1,0,.1,0,.1l-1.3,1-7.8-.8v1c.1,0,7.9.4,7.9.4l1.4.2s0,0,0,0l.8-.4s0,0,.1,0l.3.9s0,0,0,0l-.7.6s0,0,0,0l-.9,1.6-7.2,1.2.7.9,6.9-1.4,1.1-.6s0,0,0,0l.8-1s0,0,.1,0l.6.6s0,0,0,0l-.4.8s0,0,0,0l-.2,1.7s0,0,0,0l-5.7,2.2.9.3,5.3-2.2h0c0-.1,0,0,0-.1l.8-1s0,0,0,0l.2-1.3s0,0,0,0h.9c0,0,0,0,0,.1v.9s0,0,0,0l.5,1.4s0,0,0,0h.5c0-.1,0-.2,0-.2l.3-1.6s0,0,0,0l-.2-.8s0,0,0,0l.8-.6s.1,0,.1,0l.3.8s0,0,0,0l1.1.5s0,0,0,0l.3-.3s0,0,0,0l-.3-1.4s0,0,0,0l-.5-.6s0,0,0,0l.5-.9s0,0,.1,0l.8.4s0,0,0,0h1.1c0,0,0,0,0-.1l.2-.7s0,0,0,0l-.8-.8s0,0,0,0l-.8-.2s0,0,0,0l.2-1.1s0,0,0,0ZM23,22.7c-.6,1.5-2,2.4-3.2,2s-1.7-2-1.1-3.6c.6-1.5,2-2.4,3.2-2,1.2.4,1.7,2,1.1,3.6Z"/>
  </g>
</svg>