<?xml version="1.0" encoding="UTF-8"?>
<svg id="Livello_1" xmlns="http://www.w3.org/2000/svg" version="1.1" viewBox="0 0 60 60">
  <!-- Generator: Adobe Illustrator 29.8.1, SVG Export Plug-In . SVG Version: 2.1.1 Build 2)  -->
  <defs>
    <style>
      .st0 {
        fill: #0091da;
      }

      .st1 {
        fill: #004b87;
      }
    </style>
  </defs>
  <path class="st1" d="M44.5,48.5H15.5c-3.2,0-6-2.4-6.5-5.6l-2.5-17c0-.1-.1-.2-.2-.2H1.3v-3.6h4.9c1.9,0,3.5,1.4,3.8,3.2l2.5,17c.2,1.4,1.5,2.5,2.9,2.5h29c1.4,0,2.7-1.1,2.9-2.5l2.5-17c.3-1.8,1.9-3.2,3.8-3.2h4.9v3.6h-4.9c-.1,0-.2,0-.2.2l-2.5,17c-.5,3.2-3.3,5.6-6.5,5.6Z"/>
  <path class="st1" d="M40.2,24.2c1.8-1.2,1.6-1.7,0-2.9-1.9-1,1.7-3.2-.4-3.9-.8-.3-2.3-.1-2.3-1.4,0-2.2,0-2.8-2.3-2.1-.8.2-1.1,0-1.5-.8-1.5-4.1-2.5.9-4.4-.5-1.8-1.6-2.1-1.4-3,.7-.5,1.1-1.7.4-2.6.3-1.4-.3-1.2,1.2-1.2,2.2.1,1.3-1.2,1.2-2.1,1.5-1.5.3-.5,1.7-.1,2.6.9,2.2-4.3,1.8-.3,4.5.9.6,0,1.6-.3,2.4-.8,1.5,1,1.6,2,1.8,1,.2.7,1.4.7,2.1-.1,1.8,1.6,1,2.7.9,1-.1,1.1,1.1,1.5,1.7,1.2,2.3,2.7-2,4.1-.3,3.2,3,1.8-2.2,4.4-1.4.4,0,.8.3,1.5.3,1,0,.7-1.5.8-2.2,0-1.3,1.3-1.2,2.2-1.4,2.3-.7-1.4-3,.6-4ZM30.1,27.2c-2.5,0-4.5-2-4.5-4.5s2-4.5,4.5-4.5,4.5,2,4.5,4.5-2,4.5-4.5,4.5Z"/>
  <path class="st0" d="M44.5,43.2c.6,0,1.1-.5,1.2-1.1l.6-4H13.6l.6,4c0,.6.6,1.1,1.2,1.1h29Z"/>
</svg>